<mxfile host="app.diagrams.net" modified="2024-03-26T00:00:19.755Z" agent="Mozilla/5.0 (X11; Linux x86_64) AppleWebKit/537.36 (KHTML, like Gecko) Chrome/122.0.0.0 Safari/537.36" etag="6i62okdKJBmlvm3IgIMZ" version="24.1.0" type="device">
  <diagram name="Page-1" id="e7e014a7-5840-1c2e-5031-d8a46d1fe8dd">
    <mxGraphModel dx="1674" dy="788" grid="1" gridSize="10" guides="1" tooltips="1" connect="1" arrows="1" fold="1" page="1" pageScale="1" pageWidth="1169" pageHeight="826" background="none" math="0" shadow="0">
      <root>
        <mxCell id="0" />
        <mxCell id="1" parent="0" />
        <mxCell id="2" value="DNA-Seq Analysis" style="swimlane;whiteSpace=wrap" parent="1" vertex="1">
          <mxGeometry x="110" y="128" width="330" height="570" as="geometry" />
        </mxCell>
        <mxCell id="7" value="Reads Quality&#xa;Control" style="" parent="2" vertex="1">
          <mxGeometry x="60" y="74" width="120" height="70" as="geometry" />
        </mxCell>
        <mxCell id="8" value="DNA assembly" style="" parent="2" vertex="1">
          <mxGeometry x="60" y="194" width="120" height="70" as="geometry" />
        </mxCell>
        <mxCell id="9" value="" style="endArrow=open;strokeColor=#FF0000;endFill=1;rounded=0" parent="2" source="7" target="8" edge="1">
          <mxGeometry relative="1" as="geometry" />
        </mxCell>
        <mxCell id="10" value="Assembly &#xa;Evaluation" style="" parent="2" vertex="1">
          <mxGeometry x="60" y="314" width="120" height="67" as="geometry" />
        </mxCell>
        <mxCell id="11" value="" style="endArrow=open;strokeColor=#FF0000;endFill=1;rounded=0" parent="2" source="8" target="10" edge="1">
          <mxGeometry relative="1" as="geometry" />
        </mxCell>
        <mxCell id="zeDim5s6wgO88cmO0eMn-42" value="Canu (long reads)&lt;div&gt;&amp;amp;&amp;nbsp;&lt;/div&gt;&lt;div&gt;Spades (short reads)&lt;/div&gt;" style="text;html=1;align=center;verticalAlign=middle;resizable=0;points=[];autosize=1;strokeColor=none;fillColor=none;" vertex="1" parent="2">
          <mxGeometry x="180" y="199" width="140" height="60" as="geometry" />
        </mxCell>
        <mxCell id="zeDim5s6wgO88cmO0eMn-43" value="Structural &amp;&#xa;Functional&#xa;Annotation" style="" vertex="1" parent="2">
          <mxGeometry x="60" y="426" width="120" height="70" as="geometry" />
        </mxCell>
        <mxCell id="zeDim5s6wgO88cmO0eMn-44" value="" style="endArrow=open;strokeColor=#FF0000;endFill=1;rounded=0;exitX=0.5;exitY=1;exitDx=0;exitDy=0;" edge="1" parent="2" target="zeDim5s6wgO88cmO0eMn-43" source="10">
          <mxGeometry relative="1" as="geometry">
            <mxPoint x="120" y="386" as="sourcePoint" />
          </mxGeometry>
        </mxCell>
        <mxCell id="zeDim5s6wgO88cmO0eMn-41" value="FastQC" style="text;html=1;align=center;verticalAlign=middle;resizable=0;points=[];autosize=1;strokeColor=none;fillColor=none;" vertex="1" parent="2">
          <mxGeometry x="190" y="94" width="60" height="30" as="geometry" />
        </mxCell>
        <mxCell id="zeDim5s6wgO88cmO0eMn-47" value="BCF tools&amp;nbsp;&lt;div&gt;&amp;amp;&lt;/div&gt;&lt;div&gt;Quast&lt;/div&gt;" style="text;html=1;align=center;verticalAlign=middle;resizable=0;points=[];autosize=1;strokeColor=none;fillColor=none;" vertex="1" parent="2">
          <mxGeometry x="200" y="317.5" width="80" height="60" as="geometry" />
        </mxCell>
        <mxCell id="zeDim5s6wgO88cmO0eMn-48" value="Prokka" style="text;html=1;align=center;verticalAlign=middle;resizable=0;points=[];autosize=1;strokeColor=none;fillColor=none;" vertex="1" parent="2">
          <mxGeometry x="190" y="446" width="60" height="30" as="geometry" />
        </mxCell>
        <mxCell id="3" value="RNA-seq analysis" style="swimlane;whiteSpace=wrap" parent="1" vertex="1">
          <mxGeometry x="480" y="128" width="320" height="572" as="geometry" />
        </mxCell>
        <mxCell id="zeDim5s6wgO88cmO0eMn-51" value="Quality&#xa;Control" style="" vertex="1" parent="3">
          <mxGeometry x="70" y="74" width="120" height="70" as="geometry" />
        </mxCell>
        <mxCell id="zeDim5s6wgO88cmO0eMn-52" value="Preprocessing&#xa;Short Reads" style="" vertex="1" parent="3">
          <mxGeometry x="70" y="194" width="120" height="70" as="geometry" />
        </mxCell>
        <mxCell id="zeDim5s6wgO88cmO0eMn-53" value="" style="endArrow=open;strokeColor=#FF0000;endFill=1;rounded=0" edge="1" parent="3" source="zeDim5s6wgO88cmO0eMn-51" target="zeDim5s6wgO88cmO0eMn-52">
          <mxGeometry relative="1" as="geometry" />
        </mxCell>
        <mxCell id="zeDim5s6wgO88cmO0eMn-54" value="RNA mapping" style="" vertex="1" parent="3">
          <mxGeometry x="70" y="314" width="120" height="67" as="geometry" />
        </mxCell>
        <mxCell id="zeDim5s6wgO88cmO0eMn-55" value="" style="endArrow=open;strokeColor=#FF0000;endFill=1;rounded=0" edge="1" parent="3" source="zeDim5s6wgO88cmO0eMn-52" target="zeDim5s6wgO88cmO0eMn-54">
          <mxGeometry relative="1" as="geometry" />
        </mxCell>
        <mxCell id="zeDim5s6wgO88cmO0eMn-56" value="Differential &#xa;Expression" style="" vertex="1" parent="3">
          <mxGeometry x="70" y="426" width="120" height="70" as="geometry" />
        </mxCell>
        <mxCell id="zeDim5s6wgO88cmO0eMn-57" value="" style="endArrow=open;strokeColor=#FF0000;endFill=1;rounded=0;exitX=0.5;exitY=1;exitDx=0;exitDy=0;" edge="1" parent="3" source="zeDim5s6wgO88cmO0eMn-54" target="zeDim5s6wgO88cmO0eMn-56">
          <mxGeometry relative="1" as="geometry">
            <mxPoint x="130" y="386" as="sourcePoint" />
          </mxGeometry>
        </mxCell>
        <mxCell id="zeDim5s6wgO88cmO0eMn-58" value="FastQC" style="text;html=1;align=center;verticalAlign=middle;resizable=0;points=[];autosize=1;strokeColor=none;fillColor=none;" vertex="1" parent="3">
          <mxGeometry x="200" y="94" width="60" height="30" as="geometry" />
        </mxCell>
        <mxCell id="zeDim5s6wgO88cmO0eMn-59" value="BWA" style="text;html=1;align=center;verticalAlign=middle;resizable=0;points=[];autosize=1;strokeColor=none;fillColor=none;" vertex="1" parent="3">
          <mxGeometry x="215" y="332.5" width="50" height="30" as="geometry" />
        </mxCell>
        <mxCell id="zeDim5s6wgO88cmO0eMn-60" value="HTseq&lt;div&gt;&amp;amp;&lt;/div&gt;&lt;div&gt;DESeq2&lt;/div&gt;" style="text;html=1;align=center;verticalAlign=middle;resizable=0;points=[];autosize=1;strokeColor=none;fillColor=none;" vertex="1" parent="3">
          <mxGeometry x="195" y="431" width="70" height="60" as="geometry" />
        </mxCell>
        <mxCell id="zeDim5s6wgO88cmO0eMn-61" value="Trimmomatic" style="text;html=1;align=center;verticalAlign=middle;resizable=0;points=[];autosize=1;strokeColor=none;fillColor=none;" vertex="1" parent="3">
          <mxGeometry x="195" y="214" width="90" height="30" as="geometry" />
        </mxCell>
      </root>
    </mxGraphModel>
  </diagram>
</mxfile>
